# Blender 5.2.0 LTS
# www.blender.org
mtllib ridge4.mtl
o ridge
v 0.434065 0.175586 -0.110109
v 0.432774 0.175586 0.085294
v 0.440493 0.104974 -0.110066
v 0.439202 0.104974 0.085336
v 0.438046 0.026850 -0.110082
v 0.436755 0.026850 0.085320
v 0.420915 -0.047900 -0.110196
v 0.419624 -0.047900 0.085207
v 0.389036 -0.119270 -0.110406
v 0.387745 -0.119270 0.084996
v 0.352429 -0.179999 -0.110648
v 0.351138 -0.179999 0.084755
v 0.352139 0.194088 0.084761
v 0.359892 0.123474 -0.110599
v 0.353430 0.194088 -0.110641
v 0.358601 0.123474 0.084804
v 0.357444 0.045350 -0.110615
v 0.356153 0.045350 0.084788
v 0.340279 -0.029395 -0.110728
v 0.338989 -0.029395 0.084674
v 0.308434 -0.100767 -0.110939
v 0.307144 -0.100767 0.084464
v 0.271827 -0.161499 -0.111180
v 0.270536 -0.161499 0.084222
v 0.272828 0.212588 -0.111174
v 0.271537 0.212588 0.084229
v 0.279290 0.141977 -0.111131
v 0.277999 0.141977 0.084271
v 0.276809 0.063856 -0.111148
v 0.275518 0.063856 0.084255
v 0.259678 -0.010894 -0.111261
v 0.258387 -0.010894 0.084142
v 0.227796 -0.082264 -0.111471
v 0.226506 -0.082264 0.083931
v 0.191192 -0.142993 -0.111713
v 0.189901 -0.142993 0.083689
v 0.331490 0.199124 -0.110786
v 0.330199 0.199124 0.084616
v 0.353430 0.194088 -0.110641
v 0.352139 0.194088 0.084761
v 0.412125 0.180618 -0.110254
v 0.410834 0.180618 0.085149
v 0.434065 0.175586 -0.110109
v 0.432774 0.175586 0.085294
v 0.250888 0.217624 -0.111319
v 0.249597 0.217624 0.084084
v 0.272828 0.212588 -0.111174
v 0.271537 0.212588 0.084229
v 0.336661 0.128509 0.084659
v 0.352139 0.194088 0.084761
v 0.330199 0.199124 0.084616
v 0.358601 0.123474 0.084804
v 0.334213 0.050386 0.084643
v 0.356153 0.045350 0.084788
v 0.317048 -0.024362 0.084529
v 0.338989 -0.029395 0.084674
v 0.307144 -0.100767 0.084464
v 0.285203 -0.095735 0.084319
v 0.270536 -0.161499 0.084222
v 0.248596 -0.156463 0.084077
v 0.417296 0.110003 0.085192
v 0.432774 0.175586 0.085294
v 0.410834 0.180618 0.085149
v 0.439202 0.104974 0.085336
v 0.414848 0.031884 0.085176
v 0.436755 0.026850 0.085320
v 0.397684 -0.042865 0.085062
v 0.419624 -0.047900 0.085207
v 0.387745 -0.119270 0.084996
v 0.365805 -0.114235 0.084852
v 0.351138 -0.179999 0.084755
v 0.329197 -0.174967 0.084610
v 0.256059 0.147009 0.084127
v 0.271537 0.212588 0.084229
v 0.249597 0.217624 0.084084
v 0.277999 0.141977 0.084271
v 0.253611 0.068886 0.084110
v 0.275518 0.063856 0.084255
v 0.236447 -0.005859 0.083997
v 0.258387 -0.010894 0.084142
v 0.226506 -0.082264 0.083931
v 0.204568 -0.077229 0.083786
v 0.189901 -0.142993 0.083689
v 0.167961 -0.137961 0.083545
v 0.257350 0.147009 -0.111276
v 0.256059 0.147009 0.084127
v 0.250888 0.217624 -0.111319
v 0.249597 0.217624 0.084084
v 0.253611 0.068886 0.084110
v 0.254902 0.068886 -0.111292
v 0.236447 -0.005859 0.083997
v 0.237738 -0.005859 -0.111406
v 0.204568 -0.077229 0.083786
v 0.205859 -0.077229 -0.111616
v 0.167961 -0.137961 0.083545
v 0.169252 -0.137961 -0.111858
v 0.337951 0.128509 -0.110744
v 0.336661 0.128509 0.084659
v 0.331490 0.199124 -0.110786
v 0.330199 0.199124 0.084616
v 0.334213 0.050386 0.084643
v 0.335504 0.050386 -0.110760
v 0.317048 -0.024362 0.084529
v 0.318339 -0.024362 -0.110873
v 0.285203 -0.095735 0.084319
v 0.286494 -0.095735 -0.111084
v 0.248596 -0.156463 0.084077
v 0.249887 -0.156463 -0.111325
v 0.418587 0.110003 -0.110211
v 0.417296 0.110003 0.085192
v 0.412125 0.180618 -0.110254
v 0.410834 0.180618 0.085149
v 0.414848 0.031884 0.085176
v 0.416139 0.031884 -0.110227
v 0.397684 -0.042865 0.085062
v 0.398975 -0.042865 -0.110340
v 0.365805 -0.114235 0.084852
v 0.367096 -0.114235 -0.110551
v 0.329197 -0.174967 0.084610
v 0.330488 -0.174967 -0.110793
v 0.271827 -0.161499 -0.111180
v 0.270536 -0.161499 0.084222
v 0.249887 -0.156463 -0.111325
v 0.248596 -0.156463 0.084077
v 0.352429 -0.179999 -0.110648
v 0.351138 -0.179999 0.084755
v 0.330488 -0.174967 -0.110793
v 0.329197 -0.174967 0.084610
v 0.191192 -0.142993 -0.111713
v 0.189901 -0.142993 0.083689
v 0.169252 -0.137961 -0.111858
v 0.167961 -0.137961 0.083545
v 0.353430 0.194088 -0.110641
v 0.337951 0.128509 -0.110744
v 0.331490 0.199124 -0.110786
v 0.359892 0.123474 -0.110599
v 0.335504 0.050386 -0.110760
v 0.357444 0.045350 -0.110615
v 0.318339 -0.024362 -0.110873
v 0.340279 -0.029395 -0.110728
v 0.308434 -0.100767 -0.110939
v 0.286494 -0.095735 -0.111084
v 0.271827 -0.161499 -0.111180
v 0.249887 -0.156463 -0.111325
v 0.434065 0.175586 -0.110109
v 0.418587 0.110003 -0.110211
v 0.412125 0.180618 -0.110254
v 0.440493 0.104974 -0.110066
v 0.416139 0.031884 -0.110227
v 0.438046 0.026850 -0.110082
v 0.398975 -0.042865 -0.110340
v 0.420915 -0.047900 -0.110196
v 0.389036 -0.119270 -0.110406
v 0.367096 -0.114235 -0.110551
v 0.352429 -0.179999 -0.110648
v 0.330488 -0.174967 -0.110793
v 0.272828 0.212588 -0.111174
v 0.257350 0.147009 -0.111276
v 0.250888 0.217624 -0.111319
v 0.279290 0.141977 -0.111131
v 0.254902 0.068886 -0.111292
v 0.276809 0.063856 -0.111148
v 0.237738 -0.005859 -0.111406
v 0.259678 -0.010894 -0.111261
v 0.227796 -0.082264 -0.111471
v 0.205859 -0.077229 -0.111616
v 0.191192 -0.142993 -0.111713
v 0.169252 -0.137961 -0.111858
vn 0.9955 0.0947 0.0066
vn 0.9995 0.0312 0.0066
vn 0.9995 0.0313 0.0066
vn 0.9920 -0.1264 0.0066
vn 0.9919 -0.1265 0.0066
vn 0.9473 -0.3204 0.0063
vn 0.8843 -0.4670 0.0058
vn 0.8547 -0.5191 0.0056
vn 0.8547 -0.5190 0.0056
vn 0.9995 0.0311 0.0066
vn 0.9920 -0.1265 0.0066
vn 0.9920 -0.1263 0.0066
vn 0.9473 -0.3203 0.0063
vn 0.8843 -0.4669 0.0058
vn 0.8547 -0.5192 0.0056
vn 0.8546 -0.5192 0.0056
vn 0.2206 0.9754 0.0015
vn 0.2205 0.9754 0.0015
vn -0.0066 -0.0000 1.0000
vn -0.0066 -0.0003 1.0000
vn -0.0066 -0.0005 1.0000
vn -0.9995 -0.0312 -0.0066
vn -0.9995 -0.0313 -0.0066
vn -0.9955 -0.0947 -0.0066
vn -0.9920 0.1264 -0.0066
vn -0.9473 0.3204 -0.0063
vn -0.8843 0.4670 -0.0058
vn -0.8547 0.5191 -0.0056
vn -0.8547 0.5190 -0.0056
vn -0.9920 0.1263 -0.0066
vn -0.9919 0.1265 -0.0066
vn -0.9473 0.3203 -0.0063
vn -0.8843 0.4669 -0.0058
vn -0.2194 -0.9756 -0.0014
vn -0.2195 -0.9756 -0.0014
vn -0.2195 -0.9756 -0.0015
vn -0.2196 -0.9756 -0.0015
vn -0.2196 -0.9756 -0.0014
vn 0.0066 -0.0000 -1.0000
vn 0.0066 0.0005 -1.0000
vn 0.0067 0.0007 -1.0000
vn 0.0066 -0.0003 -1.0000
vn 0.0067 0.0008 -1.0000
vn 0.0066 -0.0005 -1.0000
vn 0.0067 0.0009 -1.0000
vt 48.025200 -12.939400
vt 47.974800 -12.939400
vt 48.025200 -12.965000
vt 47.974800 -12.965000
vt 48.025200 -12.993500
vt 47.974800 -12.993500
vt 48.025200 -13.021200
vt 47.974800 -13.021200
vt 48.025200 -13.048000
vt 47.974800 -13.048000
vt 48.025200 -13.071100
vt 47.974800 -13.071100
vt 47.974800 -12.934800
vt 48.025200 -12.960300
vt 48.025200 -12.934800
vt 47.974800 -12.960300
vt 48.025200 -12.988900
vt 47.974800 -12.988900
vt 48.025200 -13.016600
vt 47.974800 -13.016600
vt 48.025200 -13.043400
vt 47.974800 -13.043400
vt 48.025200 -13.066500
vt 47.974800 -13.066500
vt 48.025200 -12.930100
vt 47.974800 -12.930100
vt 48.025200 -12.955700
vt 47.974800 -12.955700
vt 48.025200 -12.984200
vt 47.974800 -12.984200
vt 48.025200 -13.011900
vt 47.974800 -13.011900
vt 48.025200 -13.038800
vt 47.974800 -13.038800
vt 48.025200 -13.061800
vt 47.974800 -13.061800
vt 47.996498 -13.025200
vt 47.996498 -12.974800
vt 47.988400 -13.025200
vt 47.988400 -12.974800
vt 47.966702 -13.025200
vt 47.966702 -12.974800
vt 47.958500 -13.025200
vt 47.958500 -12.974800
vt 48.026402 -13.025200
vt 48.026402 -12.974800
vt 48.018200 -13.025200
vt 48.018200 -12.974800
vt 48.007702 -12.959100
vt 48.011600 -12.934800
vt 48.003502 -12.933500
vt 48.015800 -12.960300
vt 48.008801 -12.987600
vt 48.016998 -12.988900
vt 48.004501 -13.015300
vt 48.012699 -13.016600
vt 48.002899 -13.043400
vt 47.994801 -13.042100
vt 47.991199 -13.066500
vt 47.983002 -13.065200
vt 48.037498 -12.963700
vt 48.041500 -12.939400
vt 48.033298 -12.938200
vt 48.045700 -12.965000
vt 48.038700 -12.992200
vt 48.046799 -12.993500
vt 48.034401 -13.019900
vt 48.042500 -13.021200
vt 48.032799 -13.048000
vt 48.024700 -13.046800
vt 48.021000 -13.071100
vt 48.012901 -13.069900
vt 47.977798 -12.954400
vt 47.981800 -12.930100
vt 47.973598 -12.928900
vt 47.986000 -12.955700
vt 47.979000 -12.983000
vt 47.987099 -12.984200
vt 47.974701 -13.010700
vt 47.982800 -13.011900
vt 47.973099 -13.038800
vt 47.964901 -13.037500
vt 47.961300 -13.061800
vt 47.953201 -13.060600
vt 47.974800 -12.954400
vt 48.025200 -12.954400
vt 47.974800 -12.928900
vt 48.025200 -12.928900
vt 48.025200 -12.983000
vt 47.974800 -12.983000
vt 48.025200 -13.010700
vt 47.974800 -13.010700
vt 48.025200 -13.037500
vt 47.974800 -13.037500
vt 48.025200 -13.060600
vt 47.974800 -13.060600
vt 47.974800 -12.959100
vt 48.025200 -12.959100
vt 47.974800 -12.933500
vt 48.025200 -12.933500
vt 48.025200 -12.987600
vt 47.974800 -12.987600
vt 48.025200 -13.015300
vt 47.974800 -13.015300
vt 48.025200 -13.042100
vt 47.974800 -13.042100
vt 48.025200 -13.065200
vt 47.974800 -13.065200
vt 47.974800 -12.963700
vt 48.025200 -12.963700
vt 47.974800 -12.938200
vt 48.025200 -12.938200
vt 48.025200 -12.992200
vt 47.974800 -12.992200
vt 48.025200 -13.019900
vt 47.974800 -13.019900
vt 48.025200 -13.046800
vt 47.974800 -13.046800
vt 48.025200 -13.069900
vt 47.974800 -13.069900
vt 47.991199 -13.025200
vt 47.991199 -12.974800
vt 47.983002 -13.025200
vt 47.983002 -12.974800
vt 48.021000 -13.025200
vt 48.021000 -12.974800
vt 48.012901 -13.025200
vt 48.012901 -12.974800
vt 47.961300 -13.025200
vt 47.961300 -12.974800
vt 47.953201 -13.025200
vt 47.953201 -12.974800
vt 47.988400 -12.934800
vt 47.992298 -12.959100
vt 47.996498 -12.933500
vt 47.984200 -12.960300
vt 47.991199 -12.987600
vt 47.983002 -12.988900
vt 47.995499 -13.015300
vt 47.987301 -13.016600
vt 47.997101 -13.043400
vt 48.005199 -13.042100
vt 48.008801 -13.066500
vt 48.016998 -13.065200
vt 47.958500 -12.939400
vt 47.962502 -12.963700
vt 47.966702 -12.938200
vt 47.954300 -12.965000
vt 47.961300 -12.992200
vt 47.953201 -12.993500
vt 47.965599 -13.019900
vt 47.957500 -13.021200
vt 47.967201 -13.048000
vt 47.975300 -13.046800
vt 47.979000 -13.071100
vt 47.987099 -13.069900
vt 48.018200 -12.930100
vt 48.022202 -12.954400
vt 48.026402 -12.928900
vt 48.014000 -12.955700
vt 48.021000 -12.983000
vt 48.012901 -12.984200
vt 48.025299 -13.010700
vt 48.017200 -13.011900
vt 48.026901 -13.038800
vt 48.035099 -13.037500
vt 48.038700 -13.061800
vt 48.046799 -13.060600
s 1
usemtl Meshpart1Mtl.009
f 1/1/1 2/2/1 3/3/2
f 3/3/2 2/2/1 4/4/3
f 3/3/2 4/4/3 5/5/4
f 5/5/4 4/4/3 6/6/5
f 6/6/5 7/7/6 5/5/4
f 7/7/6 6/6/5 8/8/6
f 7/7/6 8/8/6 9/9/7
f 9/9/7 8/8/6 10/10/7
f 9/9/7 10/10/7 11/11/8
f 11/11/8 10/10/7 12/12/9
f 13/13/1 14/14/2 15/15/1
f 14/14/2 13/13/1 16/16/10
f 14/14/2 16/16/10 17/17/11
f 17/17/11 16/16/10 18/18/12
f 17/17/11 18/18/12 19/19/6
f 19/19/6 18/18/12 20/20/13
f 19/19/6 20/20/13 21/21/14
f 21/21/14 20/20/13 22/22/14
f 21/21/14 22/22/14 23/23/8
f 23/23/8 22/22/14 24/24/15
f 25/25/1 26/26/1 27/27/2
f 27/27/2 26/26/1 28/28/2
f 27/27/2 28/28/2 29/29/4
f 29/29/4 28/28/2 30/30/4
f 29/29/4 30/30/4 31/31/6
f 31/31/6 30/30/4 32/32/13
f 31/31/6 32/32/13 33/33/7
f 33/33/7 32/32/13 34/34/7
f 33/33/7 34/34/7 35/35/16
f 35/35/16 34/34/7 36/36/16
f 37/37/17 38/38/18 39/39/17
f 39/39/17 38/38/18 40/40/18
f 41/41/17 42/42/17 43/43/17
f 43/43/17 42/42/17 44/44/17
f 45/45/17 46/46/17 47/47/17
f 47/47/17 46/46/17 48/48/17
f 49/49/19 50/50/19 51/51/19
f 50/50/19 49/49/19 52/52/19
f 53/53/19 52/52/19 49/49/19
f 52/52/19 53/53/19 54/54/19
f 55/55/19 54/54/19 53/53/19
f 54/54/19 55/55/19 56/56/19
f 57/57/19 56/56/19 55/55/19
f 55/55/19 58/58/19 57/57/19
f 59/59/19 57/57/19 58/58/19
f 58/58/19 60/60/19 59/59/19
f 61/61/20 62/62/19 63/63/19
f 62/62/19 61/61/20 64/64/19
f 65/65/19 64/64/19 61/61/20
f 64/64/19 65/65/19 66/66/19
f 67/67/19 66/66/19 65/65/19
f 66/66/19 67/67/19 68/68/20
f 69/69/19 68/68/20 67/67/19
f 67/67/19 70/70/19 69/69/19
f 71/71/19 69/69/19 70/70/19
f 70/70/19 72/72/19 71/71/19
f 73/73/19 74/74/19 75/75/19
f 74/74/19 73/73/19 76/76/19
f 77/77/19 76/76/19 73/73/19
f 76/76/19 77/77/19 78/78/19
f 79/79/21 78/78/19 77/77/19
f 78/78/19 79/79/21 80/80/21
f 81/81/19 80/80/21 79/79/21
f 79/79/21 82/82/19 81/81/19
f 83/83/19 81/81/19 82/82/19
f 82/82/19 84/84/19 83/83/19
f 85/85/22 86/86/23 87/87/24
f 87/87/24 86/86/23 88/88/24
f 85/85/22 89/89/25 86/86/23
f 90/90/25 89/89/25 85/85/22
f 90/90/25 91/91/26 89/89/25
f 92/92/26 91/91/26 90/90/25
f 92/92/26 93/93/27 91/91/26
f 94/94/27 93/93/27 92/92/26
f 94/94/27 95/95/28 93/93/27
f 96/96/29 95/95/28 94/94/27
f 97/97/22 98/98/22 99/99/24
f 99/99/24 98/98/22 100/100/24
f 97/97/22 101/101/30 98/98/22
f 102/102/31 101/101/30 97/97/22
f 102/102/31 103/103/32 101/101/30
f 104/104/26 103/103/32 102/102/31
f 104/104/26 105/105/33 103/103/32
f 106/106/27 105/105/33 104/104/26
f 106/106/27 107/107/28 105/105/33
f 108/108/28 107/107/28 106/106/27
f 109/109/22 110/110/23 111/111/24
f 111/111/24 110/110/23 112/112/24
f 109/109/22 113/113/30 110/110/23
f 114/114/31 113/113/30 109/109/22
f 114/114/31 115/115/26 113/113/30
f 116/116/26 115/115/26 114/114/31
f 116/116/26 117/117/33 115/115/26
f 118/118/33 117/117/33 116/116/26
f 118/118/33 119/119/28 117/117/33
f 120/120/28 119/119/28 118/118/33
f 121/121/34 122/122/35 123/123/34
f 123/123/34 122/122/35 124/124/34
f 125/125/35 126/126/36 127/127/37
f 127/127/37 126/126/36 128/128/34
f 129/129/34 130/130/34 131/131/36
f 131/131/36 130/130/34 132/132/38
f 133/133/39 134/134/39 135/135/39
f 134/134/39 133/133/39 136/136/39
f 136/136/39 137/137/39 134/134/39
f 137/137/39 136/136/39 138/138/39
f 138/138/39 139/139/39 137/137/39
f 139/139/39 138/138/39 140/140/39
f 141/141/39 139/139/39 140/140/39
f 139/139/39 141/141/39 142/142/39
f 143/143/40 142/142/39 141/141/39
f 142/142/39 143/143/40 144/144/41
f 145/145/39 146/146/39 147/147/39
f 146/146/39 145/145/39 148/148/39
f 148/148/39 149/149/39 146/146/39
f 149/149/39 148/148/39 150/150/39
f 150/150/39 151/151/39 149/149/39
f 151/151/39 150/150/39 152/152/39
f 153/153/42 151/151/39 152/152/39
f 151/151/39 153/153/42 154/154/39
f 155/155/40 154/154/39 153/153/42
f 154/154/39 155/155/40 156/156/43
f 157/157/39 158/158/39 159/159/39
f 158/158/39 157/157/39 160/160/39
f 160/160/39 161/161/39 158/158/39
f 161/161/39 160/160/39 162/162/39
f 162/162/39 163/163/44 161/161/39
f 163/163/44 162/162/39 164/164/44
f 165/165/39 163/163/44 164/164/44
f 163/163/44 165/165/39 166/166/39
f 167/167/45 166/166/39 165/165/39
f 166/166/39 167/167/45 168/168/43
